# xmcd CD database file
#
# Track frame offsets:
#	150
#	15382
#	29757
#	49742
#	67554
#	78932
#	98232
#	108737
#	132754
#	169055
#	192874
#	219764
#	263760
#
# Disc length: 4151 seconds
#
# Revision: 2
# Processed by: cddbd v1.5.2PL0 Copyright (c) Steve Scherf et al.
# Submitted via: CDex 1.51
#
DISCID=a210350d
DTITLE=Various Artist - The History of Jazz ~ The Very Best of Swing, Bebop, Cool and Fusion  [CD 3-5]
DYEAR=2007
DGENRE=Jazz
TTITLE0=Coleman Hawkins - How Deep Is The Ocean  (Berlin)
TTITLE1=Lester Young - These Foolish Things  (Strachey - Link - Marvel)
TTITLE2=Errol Garner - Misty  (Garner)
TTITLE3=Ruy Eldridge - Body And Soul  (Green - Eyton - Heyman_Sour)
TTITLE4=Earl Hines - There Will Never Be Another You  (Gordon - Warren)
TTITLE5=Sarah Vaughan - Fly Me To The Moon  (Howard)
TTITLE6=King Cole Trio - Sweet Georgia Brown  (Bernie - Pinkard - Casey)
TTITLE7=Dinah Washington - I've Got You Under My Skin  (Porter)
TTITLE8=Dizzy Gillespie - Bebop  (Gillespie)
TTITLE9=Charlie Parker - Groovin' High  (Parker - Gillespie)
TTITLE10=Gerry Mulligan - My Funny Valentine  (Rodgers - Hart)
TTITLE11=Miles Davis - Walkin'  (Carpenter)
TTITLE12=John Coltrane - My Favourite Thing  (Rodger - Hammerstein)
EXTD=YEAR: 2007
EXTT0=
EXTT1=
EXTT2=
EXTT3=
EXTT4=
EXTT5=
EXTT6=
EXTT7=
EXTT8=
EXTT9=
EXTT10=
EXTT11=
EXTT12=
PLAYORDER=
